<svg width="565" height="131" viewBox="0 0 565 131" fill="none" xmlns="http://www.w3.org/2000/svg">
<rect width="565" height="131"/>
<path d="M89.9746 26L78.207 61.6934L91.0977 105.053H69.8574L61.5566 71.166V105.053H41V26H61.5566V56.7129L70.6875 26H89.9746Z" fill="black"/>
<path d="M140.609 26V105.053H122.592L111.898 69.1152V105.053H94.7109V26H111.898L123.422 61.5957V26H140.609Z" fill="black"/>
<path d="M212.338 26V105.053H194.369V51.6836L187.191 105.053H174.447L166.879 52.9043V105.053H148.91V26H175.521C176.303 30.7526 177.133 36.3516 178.012 42.7969L180.844 62.9141L185.531 26H212.338Z" fill="black"/>
<path d="M287.24 26L275.473 61.6934L288.363 105.053H267.123L258.822 71.166V105.053H238.266V26H258.822V56.7129L267.953 26H287.24Z" fill="black"/>
<path d="M291.977 26H326.254V41.8203H312.533V56.8105H325.375V71.8496H312.533V89.2324H327.621V105.053H291.977V26Z" fill="black"/>
<path d="M333.578 26H348.129C357.829 26 364.389 26.3743 367.807 27.123C371.257 27.8717 374.057 29.7923 376.205 32.8848C378.386 35.9447 379.477 40.8438 379.477 47.582C379.477 53.7344 378.712 57.8685 377.182 59.9844C375.652 62.1003 372.641 63.3698 368.148 63.793C372.217 64.8021 374.952 66.153 376.352 67.8457C377.751 69.5384 378.614 71.1009 378.939 72.5332C379.298 73.9329 379.477 77.8229 379.477 84.2031V105.053H360.385V78.7832C360.385 74.5514 360.043 71.931 359.359 70.9219C358.708 69.9128 356.967 69.4082 354.135 69.4082V105.053H333.578V26ZM354.135 39.5254V57.1035C356.446 57.1035 358.057 56.7943 358.969 56.1758C359.913 55.5247 360.385 53.4577 360.385 49.9746V45.6289C360.385 43.1224 359.929 41.4785 359.018 40.6973C358.139 39.916 356.511 39.5254 354.135 39.5254Z" fill="black"/>
<path d="M422.982 26L434.75 105.053H413.705L412.68 90.8438H405.307L404.086 105.053H382.797L393.246 26H422.982ZM412.094 76.8301C411.052 67.8783 410.01 56.8268 408.969 43.6758C406.885 58.7799 405.583 69.8314 405.062 76.8301H412.094Z" fill="black"/>
<path d="M458.822 26V89.2324H471.322V105.053H438.266V26H458.822Z" fill="black"/>
<path d="M511.85 26L523.617 105.053H502.572L501.547 90.8438H494.174L492.953 105.053H471.664L482.113 26H511.85ZM500.961 76.8301C499.919 67.8783 498.878 56.8268 497.836 43.6758C495.753 58.7799 494.451 69.8314 493.93 76.8301H500.961Z" fill="black"/>
</svg>
